<svg xmlns="http://www.w3.org/2000/svg" viewBox="0 0 300 300" width="300" height="300">
  <defs>
    <linearGradient id="bgGrad" x1="0%" y1="0%" x2="100%" y2="100%">
      <stop offset="0%" stop-color="#0A2540"/>
      <stop offset="100%" stop-color="#15375a"/>
    </linearGradient>
    <linearGradient id="goldGrad" x1="0%" y1="0%" x2="100%" y2="100%">
      <stop offset="0%" stop-color="#F5B700"/>
      <stop offset="100%" stop-color="#D49600"/>
    </linearGradient>
  </defs>

  <!-- Background rounded square -->
  <rect x="0" y="0" width="300" height="300" rx="48" fill="url(#bgGrad)"/>

  <!-- Subtle inner frame -->
  <rect x="18" y="18" width="264" height="264" rx="36" fill="none" stroke="#E5A800" stroke-width="1.2" opacity="0.22"/>

  <!-- Battlement crown (fortress identity) -->
  <g fill="url(#goldGrad)">
    <rect x="56" y="60" width="30" height="28" rx="2"/>
    <rect x="96" y="60" width="30" height="28" rx="2"/>
    <rect x="136" y="60" width="30" height="28" rx="2"/>
    <rect x="176" y="60" width="30" height="28" rx="2"/>
    <rect x="216" y="60" width="30" height="28" rx="2"/>
    <rect x="46" y="88" width="210" height="12" rx="2"/>
  </g>

  <!-- Wall foundation stones (subtle, below wordmark) -->
  <g opacity="0.18" fill="#E5A800">
    <rect x="60" y="234" width="40" height="8" rx="1"/>
    <rect x="105" y="234" width="40" height="8" rx="1"/>
    <rect x="150" y="234" width="40" height="8" rx="1"/>
    <rect x="195" y="234" width="40" height="8" rx="1"/>
  </g>

  <!-- HISN wordmark — bold, prominent, brand-recognizable -->
  <text x="150" y="188"
        font-family="'Segoe UI', 'Helvetica Neue', Arial, sans-serif"
        font-size="62" font-weight="900"
        fill="url(#goldGrad)"
        text-anchor="middle"
        letter-spacing="6">HISN</text>

  <!-- Subtitle -->
  <text x="150" y="218"
        font-family="'Segoe UI', 'Helvetica Neue', Arial, sans-serif"
        font-size="11" font-weight="600"
        fill="#FFFFFF"
        opacity="0.7"
        text-anchor="middle"
        letter-spacing="5">CYBERSECURITY</text>
</svg>
