<svg xmlns="http://www.w3.org/2000/svg" viewBox="0 0 1128 191" width="1128" height="191">
  <defs>
    <linearGradient id="bg" x1="0%" y1="0%" x2="100%" y2="100%">
      <stop offset="0%" stop-color="#0A2540"/>
      <stop offset="50%" stop-color="#15375a"/>
      <stop offset="100%" stop-color="#0A2540"/>
    </linearGradient>
    <linearGradient id="gold" x1="0%" y1="0%" x2="100%" y2="0%">
      <stop offset="0%" stop-color="#F5B700"/>
      <stop offset="100%" stop-color="#D49600"/>
    </linearGradient>
    <pattern id="grid" width="40" height="40" patternUnits="userSpaceOnUse">
      <path d="M 40 0 L 0 0 0 40" fill="none" stroke="#ffffff" stroke-width="0.5" opacity="0.05"/>
    </pattern>
    <radialGradient id="glow" cx="78%" cy="50%" r="55%">
      <stop offset="0%" stop-color="#E5A800" stop-opacity="0.16"/>
      <stop offset="70%" stop-color="#E5A800" stop-opacity="0"/>
    </radialGradient>
  </defs>

  <rect width="1128" height="191" fill="url(#bg)"/>
  <rect width="1128" height="191" fill="url(#grid)"/>
  <rect width="1128" height="191" fill="url(#glow)"/>

  <!-- Left accent bar -->
  <rect x="0" y="0" width="6" height="191" fill="url(#gold)"/>

  <!-- Main tagline -->
  <text x="50" y="76" font-family="'Segoe UI', 'Helvetica Neue', Arial, sans-serif"
        font-size="34" font-weight="800" fill="#FFFFFF" letter-spacing="-0.3">
    Fortify what you've built.
  </text>

  <!-- Sub-tagline -->
  <text x="50" y="112" font-family="'Segoe UI', 'Helvetica Neue', Arial, sans-serif"
        font-size="18" font-weight="500" fill="#E5A800">
    Cybersecurity for Saudi mid-market companies.
  </text>

  <!-- Pillar tags -->
  <g font-family="'Segoe UI', 'Helvetica Neue', Arial, sans-serif" font-size="12" font-weight="700" letter-spacing="3" fill="#FFFFFF" opacity="0.75">
    <text x="50" y="156">NCA</text>
    <text x="106" y="156">·</text>
    <text x="122" y="156">PDPL</text>
    <text x="184" y="156">·</text>
    <text x="200" y="156">SAMA</text>
    <text x="268" y="156">·</text>
    <text x="284" y="156">ISO 27001</text>
  </g>

  <!-- Right-side brand mark: battlements + path-rendered ح -->
  <g transform="translate(920, 24)">

    <!-- Container frame -->
    <rect x="0" y="0" width="180" height="148" rx="12"
          fill="rgba(255,255,255,0.04)" stroke="#E5A800" stroke-width="1" opacity="0.55"/>

    <!-- Battlement crown (scaled to fit) -->
    <g fill="#E5A800">
      <rect x="20" y="14" width="16" height="14" rx="1"/>
      <rect x="44" y="14" width="16" height="14" rx="1"/>
      <rect x="68" y="14" width="16" height="14" rx="1"/>
      <rect x="92" y="14" width="16" height="14" rx="1"/>
      <rect x="116" y="14" width="16" height="14" rx="1"/>
      <rect x="140" y="14" width="16" height="14" rx="1"/>
      <rect x="16" y="28" width="144" height="6" rx="1"/>
    </g>

    <!-- ح letterform (scaled, path-based) -->
    <g fill="#E5A800" transform="translate(28, 42) scale(0.5)">
      <!-- Bowl -->
      <path d="
        M 60 135
        L 60 215
        Q 60 250 100 250
        L 210 250
        Q 250 250 250 215
        L 250 135
        L 220 135
        L 220 215
        Q 220 220 215 220
        L 95 220
        Q 90 220 90 215
        L 90 135
        Z"/>
      <!-- Right terminal cap -->
      <rect x="216" y="120" width="44" height="15" rx="2"/>
      <!-- Left tail -->
      <path d="
        M 60 225
        L 80 225
        L 80 258
        Q 80 264 74 264
        L 42 264
        Q 36 264 36 258
        L 36 245
        Q 36 225 56 225
        Z"/>
    </g>
  </g>

  <!-- URL -->
  <text x="1080" y="178" font-family="'Segoe UI', 'Helvetica Neue', Arial, sans-serif"
        font-size="13" font-weight="500" fill="#FFFFFF" opacity="0.55"
        text-anchor="end">
    hisnsec.com
  </text>
</svg>
